<?xml version="1.0" encoding="UTF-8" standalone="no"?>
<!DOCTYPE svg PUBLIC "-//W3C//DTD SVG 1.1//EN"
 "http://www.w3.org/Graphics/SVG/1.1/DTD/svg11.dtd">
<!-- Generated by graphviz version 2.38.0 (20140413.2041)
 -->
<!-- Title: elm_dependencies Pages: 1 -->
<svg width="800pt" height="260pt"
 viewBox="0.00 0.00 800.19 260.00" xmlns="http://www.w3.org/2000/svg" xmlns:xlink="http://www.w3.org/1999/xlink">
<g id="graph0" class="graph" transform="scale(1 1) rotate(0) translate(4 256)">
<title>elm_dependencies</title>
<polygon fill="white" stroke="none" points="-4,4 -4,-256 796.195,-256 796.195,4 -4,4"/>
<!-- App -->
<g id="node1" class="node"><title>App</title>
<polygon fill="none" stroke="black" points="188.195,-252 134.195,-252 134.195,-216 188.195,-216 188.195,-252"/>
<text text-anchor="middle" x="161.195" y="-230.3" font-family="Times,serif" font-size="14.00">App</text>
</g>
<!-- Dreamwriter -->
<g id="node2" class="node"><title>Dreamwriter</title>
<ellipse fill="none" stroke="black" cx="57.1949" cy="-162" rx="57.3905" ry="18"/>
<text text-anchor="middle" x="57.1949" y="-158.3" font-family="Times,serif" font-size="14.00">Dreamwriter</text>
</g>
<!-- App&#45;&gt;Dreamwriter -->
<g id="edge1" class="edge"><title>App&#45;&gt;Dreamwriter</title>
<path fill="none" stroke="black" d="M135.754,-215.876C121.578,-206.335 103.802,-194.37 88.7469,-184.237"/>
<polygon fill="black" stroke="black" points="80.2446,-178.514 91.0532,-180.365 84.3926,-181.306 88.5405,-184.098 88.5405,-184.098 88.5405,-184.098 84.3926,-181.306 86.0278,-187.831 80.2446,-178.514 80.2446,-178.514"/>
</g>
<!-- Dreamwriter.Action -->
<g id="node3" class="node"><title>Dreamwriter.Action</title>
<polygon fill="none" stroke="black" points="153.195,-36 23.1949,-36 23.1949,-0 153.195,-0 153.195,-36"/>
<text text-anchor="middle" x="88.1949" y="-14.3" font-family="Times,serif" font-size="14.00">Dreamwriter.Action</text>
</g>
<!-- App&#45;&gt;Dreamwriter.Action -->
<g id="edge2" class="edge"><title>App&#45;&gt;Dreamwriter.Action</title>
<path fill="none" stroke="black" d="M155.344,-215.849C142.664,-178.675 112.564,-90.4388 97.3439,-45.8204"/>
<polygon fill="black" stroke="black" points="94.0733,-36.2325 101.561,-44.2441 95.6876,-40.9647 97.3019,-45.6969 97.3019,-45.6969 97.3019,-45.6969 95.6876,-40.9647 93.0429,-47.1498 94.0733,-36.2325 94.0733,-36.2325"/>
</g>
<!-- Dreamwriter.Model -->
<g id="node4" class="node"><title>Dreamwriter.Model</title>
<polygon fill="none" stroke="black" points="299.195,-36 171.195,-36 171.195,-0 299.195,-0 299.195,-36"/>
<text text-anchor="middle" x="235.195" y="-14.3" font-family="Times,serif" font-size="14.00">Dreamwriter.Model</text>
</g>
<!-- App&#45;&gt;Dreamwriter.Model -->
<g id="edge3" class="edge"><title>App&#45;&gt;Dreamwriter.Model</title>
<path fill="none" stroke="black" d="M163.152,-215.899C167.047,-185.764 177.349,-121.689 199.195,-72 203.382,-62.4777 209.313,-52.8399 215.157,-44.4417"/>
<polygon fill="black" stroke="black" points="221.137,-36.1954 218.909,-46.9326 218.202,-40.243 215.266,-44.2907 215.266,-44.2907 215.266,-44.2907 218.202,-40.243 211.623,-41.6488 221.137,-36.1954 221.137,-36.1954"/>
</g>
<!-- Dreamwriter.View.Page -->
<g id="node5" class="node"><title>Dreamwriter.View.Page</title>
<polygon fill="none" stroke="black" points="485.195,-180 333.195,-180 333.195,-144 485.195,-144 485.195,-180"/>
<text text-anchor="middle" x="409.195" y="-158.3" font-family="Times,serif" font-size="14.00">Dreamwriter.View.Page</text>
</g>
<!-- App&#45;&gt;Dreamwriter.View.Page -->
<g id="edge4" class="edge"><title>App&#45;&gt;Dreamwriter.View.Page</title>
<path fill="none" stroke="black" d="M188.207,-225.376C224.104,-215.243 288.83,-196.974 338.989,-182.816"/>
<polygon fill="black" stroke="black" points="348.813,-180.043 340.412,-187.09 344.001,-181.401 339.189,-182.76 339.189,-182.76 339.189,-182.76 344.001,-181.401 337.967,-178.429 348.813,-180.043 348.813,-180.043"/>
</g>
<!-- Dreamwriter.View.LeftSidebar -->
<g id="node6" class="node"><title>Dreamwriter.View.LeftSidebar</title>
<polygon fill="none" stroke="black" points="398.195,-108 208.195,-108 208.195,-72 398.195,-72 398.195,-108"/>
<text text-anchor="middle" x="303.195" y="-86.3" font-family="Times,serif" font-size="14.00">Dreamwriter.View.LeftSidebar</text>
</g>
<!-- Dreamwriter.View.Page&#45;&gt;Dreamwriter.View.LeftSidebar -->
<g id="edge5" class="edge"><title>Dreamwriter.View.Page&#45;&gt;Dreamwriter.View.LeftSidebar</title>
<path fill="none" stroke="black" d="M383.264,-143.876C369.533,-134.808 352.488,-123.552 337.659,-113.759"/>
<polygon fill="black" stroke="black" points="329.225,-108.19 340.05,-109.945 333.397,-110.945 337.57,-113.7 337.57,-113.7 337.57,-113.7 333.397,-110.945 335.09,-117.456 329.225,-108.19 329.225,-108.19"/>
</g>
<!-- Dreamwriter.View.RightSidebar -->
<g id="node7" class="node"><title>Dreamwriter.View.RightSidebar</title>
<polygon fill="none" stroke="black" points="613.695,-108 416.695,-108 416.695,-72 613.695,-72 613.695,-108"/>
<text text-anchor="middle" x="515.195" y="-86.3" font-family="Times,serif" font-size="14.00">Dreamwriter.View.RightSidebar</text>
</g>
<!-- Dreamwriter.View.Page&#45;&gt;Dreamwriter.View.RightSidebar -->
<g id="edge6" class="edge"><title>Dreamwriter.View.Page&#45;&gt;Dreamwriter.View.RightSidebar</title>
<path fill="none" stroke="black" d="M435.125,-143.876C448.857,-134.808 465.901,-123.552 480.731,-113.759"/>
<polygon fill="black" stroke="black" points="489.165,-108.19 483.3,-117.456 484.992,-110.945 480.82,-113.7 480.82,-113.7 480.82,-113.7 484.992,-110.945 478.34,-109.945 489.165,-108.19 489.165,-108.19"/>
</g>
<!-- Dreamwriter.View.Editor -->
<g id="node8" class="node"><title>Dreamwriter.View.Editor</title>
<polygon fill="none" stroke="black" points="792.195,-108 632.195,-108 632.195,-72 792.195,-72 792.195,-108"/>
<text text-anchor="middle" x="712.195" y="-86.3" font-family="Times,serif" font-size="14.00">Dreamwriter.View.Editor</text>
</g>
<!-- Dreamwriter.View.Page&#45;&gt;Dreamwriter.View.Editor -->
<g id="edge7" class="edge"><title>Dreamwriter.View.Page&#45;&gt;Dreamwriter.View.Editor</title>
<path fill="none" stroke="black" d="M482.93,-143.966C526.912,-133.805 582.891,-120.872 628.524,-110.33"/>
<polygon fill="black" stroke="black" points="638.393,-108.05 629.662,-114.686 633.521,-109.176 628.649,-110.301 628.649,-110.301 628.649,-110.301 633.521,-109.176 627.636,-105.917 638.393,-108.05 638.393,-108.05"/>
</g>
<!-- Dreamwriter.View.LeftSidebar&#45;&gt;Dreamwriter.Action -->
<g id="edge8" class="edge"><title>Dreamwriter.View.LeftSidebar&#45;&gt;Dreamwriter.Action</title>
<path fill="none" stroke="black" d="M250.875,-71.9656C220.573,-62.1 182.247,-49.6215 150.407,-39.255"/>
<polygon fill="black" stroke="black" points="140.75,-36.1108 151.651,-34.9278 145.504,-37.6588 150.258,-39.2067 150.258,-39.2067 150.258,-39.2067 145.504,-37.6588 148.865,-43.4857 140.75,-36.1108 140.75,-36.1108"/>
</g>
<!-- Dreamwriter.View.LeftSidebar&#45;&gt;Dreamwriter.Model -->
<g id="edge9" class="edge"><title>Dreamwriter.View.LeftSidebar&#45;&gt;Dreamwriter.Model</title>
<path fill="none" stroke="black" d="M286.386,-71.6966C278.069,-63.135 267.89,-52.6562 258.805,-43.3045"/>
<polygon fill="black" stroke="black" points="251.811,-36.1043 262.006,-40.1416 255.295,-39.6907 258.778,-43.2772 258.778,-43.2772 258.778,-43.2772 255.295,-39.6907 255.551,-46.4127 251.811,-36.1043 251.811,-36.1043"/>
</g>
<!-- Dreamwriter.View.CurrentDoc -->
<g id="node9" class="node"><title>Dreamwriter.View.CurrentDoc</title>
<polygon fill="none" stroke="black" points="508.695,-36 317.695,-36 317.695,-0 508.695,-0 508.695,-36"/>
<text text-anchor="middle" x="413.195" y="-14.3" font-family="Times,serif" font-size="14.00">Dreamwriter.View.CurrentDoc</text>
</g>
<!-- Dreamwriter.View.LeftSidebar&#45;&gt;Dreamwriter.View.CurrentDoc -->
<g id="edge10" class="edge"><title>Dreamwriter.View.LeftSidebar&#45;&gt;Dreamwriter.View.CurrentDoc</title>
<path fill="none" stroke="black" d="M330.104,-71.8761C344.353,-62.8083 362.041,-51.5523 377.431,-41.7592"/>
<polygon fill="black" stroke="black" points="386.182,-36.1898 380.162,-45.355 381.964,-38.8742 377.746,-41.5586 377.746,-41.5586 377.746,-41.5586 381.964,-38.8742 375.33,-37.7621 386.182,-36.1898 386.182,-36.1898"/>
</g>
<!-- Dreamwriter.View.OpenMenu -->
<g id="node10" class="node"><title>Dreamwriter.View.OpenMenu</title>
<polygon fill="none" stroke="black" points="713.695,-36 526.695,-36 526.695,-0 713.695,-0 713.695,-36"/>
<text text-anchor="middle" x="620.195" y="-14.3" font-family="Times,serif" font-size="14.00">Dreamwriter.View.OpenMenu</text>
</g>
<!-- Dreamwriter.View.LeftSidebar&#45;&gt;Dreamwriter.View.OpenMenu -->
<g id="edge11" class="edge"><title>Dreamwriter.View.LeftSidebar&#45;&gt;Dreamwriter.View.OpenMenu</title>
<path fill="none" stroke="black" d="M380.336,-71.9656C426.447,-61.7834 485.162,-48.8181 532.958,-38.2638"/>
<polygon fill="black" stroke="black" points="542.983,-36.0501 534.188,-42.6005 538.1,-37.1282 533.218,-38.2064 533.218,-38.2064 533.218,-38.2064 538.1,-37.1282 532.247,-33.8122 542.983,-36.0501 542.983,-36.0501"/>
</g>
</g>
</svg>
